# xmcd CD database file
#
# Track frame offsets:
#	150
#	9248
#	21254
#	32184
#	43904
#	53962
#	64897
#	73943
#	84287
#	93751
#	102424
#	110885
#	125046
#	135527
#	147754
#	161160
#	169515
#	182366
#	195791
#	207979
#
# Disc length: 3007 seconds
#
# Revision: 0
# Processed by: cddbd v1.5.2PL0 Copyright (c) Steve Scherf et al.
# Submitted via: CDex 1.99.1
#
DISCID=170bbd14
DTITLE=Pat Boone - CD1 - The EP Collection 1955-1961
DYEAR=2018
DGENRE=Country
TTITLE0=At My Front Door
TTITLE1=Tennessee Saturday Night
TTITLE2=Ain't That A Shame
TTITLE3=Two Hearts
TTITLE4=Treasure Of Love
TTITLE5=Bingo
TTITLE6=Hoboken Baby
TTITLE7=Am I Seeing Angels
TTITLE8=Coax Me A Little
TTITLE9=Mocking Bird
TTITLE10=Indiana Holiday
TTITLE11=Marry Me, Marry Me
TTITLE12=Don't Forbid Me
TTITLE13=Why Did I Choose You
TTITLE14=Rock Me Baby
TTITLE15=The Fat Man
TTITLE16=Just A Closer Walk With Thee
TTITLE17=Peace In The Valley
TTITLE18=He'll Understand and Say Well Done
TTITLE19=Steal Away
EXTD=YEAR: 2018
EXTT0=
EXTT1=
EXTT2=
EXTT3=
EXTT4=
EXTT5=
EXTT6=
EXTT7=
EXTT8=
EXTT9=
EXTT10=
EXTT11=
EXTT12=
EXTT13=
EXTT14=
EXTT15=
EXTT16=
EXTT17=
EXTT18=
EXTT19=
PLAYORDER=
